# xmcd
#
# Track frame offsets:
# 150
# 15771
# 32620
# 49573
# 63803
# 77676
# 91676
# 106607
# 122400
# 135600
# 149898
# 166634
# 181800
# 196950
#
# Disc length: 2829 seconds
#
#
# Revision: 0
# Processed by: cddbd v1.5.2PL0 Copyright (c) Steve Scherf et al.
# Submitted via: FreeRIP 2.945 
#
DISCID=9c0b0b0e
DTITLE=Pedro Paulo and Matheus - Destino
DYEAR=2010
DGENRE=Sertanejo
TTITLE0=Destino
TTITLE1=Amor Platônico
TTITLE2=Simples Assim
TTITLE3=Preciso de Mim
TTITLE4=Louco por Você
TTITLE5=Forró com Reggae
TTITLE6=Galera Louca
TTITLE7=Dizem
TTITLE8=Demora Não
TTITLE9=Balançou meu Coração
TTITLE10=Tive Medo
TTITLE11=Sobrou Amor
TTITLE12=Escuta Meu Bem
TTITLE13=Me Chamou Pra Dançar
EXTD=Pedro Paulo and Matheus - Destino - Ao Vivo
EXTT0=Pedro Paulo and Matheus - Destino - Ao Vivo
EXTT1=Pedro Paulo and Matheus - Destino - Ao Vivo
EXTT2=Pedro Paulo and Matheus - Destino - Ao Vivo
EXTT3=Pedro Paulo and Matheus - Destino - Ao Vivo
EXTT4=Pedro Paulo and Matheus - Destino - Ao Vivo
EXTT5=Pedro Paulo and Matheus - Destino - Ao Vivo
EXTT6=Pedro Paulo and Matheus - Destino - Ao Vivo
EXTT7=Pedro Paulo and Matheus - Destino - Ao Vivo
EXTT8=Pedro Paulo and Matheus - Destino - Ao Vivo
EXTT9=Pedro Paulo and Matheus - Destino - Ao Vivo
EXTT10=Pedro Paulo and Matheus - Destino - Ao Vivo
EXTT11=Pedro Paulo and Matheus - Destino - Ao Vivo
EXTT12=Pedro Paulo and Matheus - Destino - Ao Vivo
EXTT13=Pedro Paulo and Matheus - Destino - Ao Vivo
PLAYORDER=
